<?xml version="1.0" encoding="UTF-8"?>
<svg width="31px" height="31px" viewBox="0 0 31 31" version="1.1" xmlns="http://www.w3.org/2000/svg" xmlns:xlink="http://www.w3.org/1999/xlink">
    <title>Cake ICON Logo</title>
    <g id="Cake-ICON-Logo" stroke="none" stroke-width="1" fill="none" fill-rule="evenodd">
        <rect id="Rectangle" fill="#6CEBCE" fill-rule="nonzero" x="0" y="0" width="31" height="31" rx="15.5"></rect>
        <path d="M16.2483919,18.8366489 C14.7627451,18.8366489 13.7363835,17.8268423 13.7363835,15.449986 C13.7363835,13.0731297 14.7955512,12.1633511 16.2108993,12.1633511 C17.7293521,12.1633511 18.3245481,13.4017932 18.5869968,14.811712 L24,14.0400672 C23.4376101,9.54833287 21.4926782,7 16.2483919,7 C16.0374957,7 15.8359726,7 15.6344496,7 C15.5026186,8.86558292 14.6129085,10.5912749 13.1786801,11.763239 C11.8131606,12.9928912 10.0092581,13.5959859 8.19215595,13.4303727 C8.06359214,14.1517987 7.99928189,14.8835358 8,15.6166994 C8,21.3325862 11.3321665,24 16.3468102,24 C21.2630356,24 23.5688344,21.1801625 23.9671939,16.8884842 L18.5869968,15.9167834 C18.3245481,17.6601289 17.6637399,18.8366489 16.2483919,18.8366489 Z" id="Path" fill="#ECEBEB" fill-rule="nonzero"></path>
    </g>
</svg>