<?xml version="1.0" encoding="UTF-8"?>
<svg width="42px" height="39px" viewBox="0 0 42 39" version="1.1" xmlns="http://www.w3.org/2000/svg" xmlns:xlink="http://www.w3.org/1999/xlink">
    <title>Icon/Support</title>
    <defs>
        <filter id="filter-1">
            <feColorMatrix in="SourceGraphic" type="matrix" values="0 0 0 0 0.254902 0 0 0 0 0.250980 0 0 0 0 0.258824 0 0 0 1.000000 0"></feColorMatrix>
        </filter>
    </defs>
    <g id="Cake-Campaign-Landing-pages" stroke="none" stroke-width="1" fill="none" fill-rule="evenodd">
        <g id="Cake-Refi-Landing-Steps_D1" transform="translate(-599.000000, -80.000000)">
            <g id="Group-2" transform="translate(386.000000, 54.000000)">
                <g id="Call-Us" transform="translate(188.000000, 0.000000)" filter="url(#filter-1)">
                    <g transform="translate(22.730539, 8.800000)">
                        <g id="Icon/Support" fill="#121212" transform="translate(0.000000, 15.840000)">
                            <path d="M22.8065608,2.112 C14.7342014,2.112 8.06116136,7.660224 6.99160208,14.8634323 C4.31491008,15.2976806 2.28065608,17.4608544 2.28065608,20.064 L2.28065608,24.288 C2.28065608,27.2040384 4.83337162,29.568 7.98229628,29.568 C11.1312209,29.568 13.6839365,27.2040384 13.6839365,24.288 L13.6839365,20.064 C13.6839365,18.3584966 12.8107189,16.8418483 11.4557355,15.8765376 C12.0095244,10.5227232 16.8800707,6.336 22.8065608,6.336 C28.7330737,6.336 33.6036428,10.5227232 34.1573861,15.8765376 C32.8024483,16.8418483 31.9291851,18.3584966 31.9291851,20.064 L31.9291851,24.288 C31.9291851,25.795968 32.6117855,27.1563072 33.7065004,28.1183232 C32.6352762,30.9729024 29.9571018,33.1311552 26.6747816,33.6644352 C25.8683416,32.4726336 24.437458,31.68 22.8065608,31.68 C20.2874165,31.68 18.2452486,33.5710848 18.2452486,35.904 C18.2452486,38.2369152 20.2874165,40.128 22.8065608,40.128 C24.5391752,40.128 26.0464608,39.2333568 26.8184629,37.9154688 C32.0163062,37.3078464 36.3057641,34.000032 37.9966425,29.5572288 C40.9751794,29.3827776 43.3324655,27.0902016 43.3324655,24.288 L43.3324655,20.064 C43.3324655,17.4608544 41.2981203,15.2976806 38.6215423,14.8634323 C37.5519146,7.660224 30.878943,2.112 22.8065608,2.112 Z M37.6308253,25.344 C38.2605144,25.344 38.7711533,24.8711232 38.7711533,24.288 L38.7711533,20.064 C38.7711533,19.4807923 38.2605144,19.008 37.6308253,19.008 C37.0011362,19.008 36.4904973,19.4807923 36.4904973,20.064 L36.4904973,24.288 C36.4904973,24.8711232 37.0011362,25.344 37.6308253,25.344 Z M7.98229628,19.008 C7.35251591,19.008 6.84196824,19.4807923 6.84196824,20.064 L6.84196824,24.288 C6.84196824,24.8711232 7.35251591,25.344 7.98229628,25.344 C8.61207665,25.344 9.12262432,24.8711232 9.12262432,24.288 L9.12262432,20.064 C9.12262432,19.4807923 8.61207665,19.008 7.98229628,19.008 Z" id="Support"></path>
                        </g>
                    </g>
                </g>
            </g>
        </g>
    </g>
</svg>