<?xml version="1.0" encoding="UTF-8"?>
<svg width="90px" height="90px" viewBox="0 0 90 90" version="1.1" xmlns="http://www.w3.org/2000/svg" xmlns:xlink="http://www.w3.org/1999/xlink">
    <title>Shape</title>
    <g id="Cake-Campaign-Landing-pages" stroke="none" stroke-width="1" fill="none" fill-rule="evenodd">
        <g id="Cake-Refi-Landing-Steps_D1" transform="translate(-676.000000, -665.000000)" fill="#414042" fill-rule="nonzero">
            <g id="Group-18" transform="translate(247.000000, 457.000000)">
                <g id="Group-19" transform="translate(0.000000, 90.000000)">
                    <g id="Group-11" transform="translate(420.000000, 118.000000)">
                        <g id="np_next-arrow_1776680_000000" transform="translate(9.000000, 0.000000)">
                            <path d="M81.7232431,19.0169757 C76.3921747,11.5627336 68.9526322,5.85626251 60.3499834,2.69274933 C51.5323981,-0.543648207 41.6408569,-0.855950394 32.6199589,1.71940059 C23.9767306,4.19331566 16.0871811,9.32366815 10.370763,16.2786213 C4.44376729,23.4773528 0.863948678,32.2986437 0.134243964,41.6064532 C-0.595481506,50.8938095 1.66671727,60.3840376 6.50719911,68.3410986 C11.161285,75.9981087 18.1216572,82.263879 26.2904892,85.9506644 C35.0147727,89.8927528 44.784783,90.9999305 54.1824166,89.0815769 C63.0283349,87.2768067 71.2828925,82.6534261 77.513041,76.1243585 C83.7643614,69.5623787 88.0450328,61.1186952 89.424321,52.147275 C89.7891837,49.7869433 89.9918945,47.4022129 90,45.0093843 L90,45.0012735 C89.9716213,35.7585616 87.1053628,26.5517726 81.7215722,19.0172747 L81.7232431,19.0169757 Z M64.6227672,46.3029258 C64.6227672,46.3029258 64.6227672,46.3110365 64.6146596,46.3110365 C64.4849297,46.5949325 64.3106039,46.8707095 64.099798,47.0897155 C64.079528,47.1221605 64.0511493,47.138384 64.0268255,47.1708289 C63.9538519,47.2519403 63.8727686,47.3249451 63.8038561,47.3938841 C63.317369,47.8805585 62.8227763,48.3672329 62.3362477,48.8538553 C59.8835224,51.2872791 57.422702,53.720599 54.9659291,56.153919 C53.4253607,57.6747309 51.8847922,59.203745 50.3443276,60.7286061 C49.136179,61.9249685 47.2631907,61.8438821 46.0470508,60.7286061 C44.8389022,59.6254776 44.9118623,57.5449511 46.0470508,56.4296752 C46.6146242,55.8700022 47.1822392,55.3022518 47.7497297,54.7465865 C50.0119077,52.5079363 52.2700381,50.2651331 54.5403113,48.02233 L28.1075857,48.0263854 C26.4049068,48.0263854 25.1399884,46.6271511 25.0670283,44.9846576 C24.9940558,43.342164 26.5183426,41.9429298 28.1075857,41.9429298 L54.4469058,41.9429298 C53.1901863,40.6938249 51.9333631,39.4487691 50.6685485,38.2036094 C49.1279801,36.6827975 47.5874116,35.1537834 46.046947,33.6289223 C44.8387984,32.4325599 44.9321001,30.5385011 46.046947,29.3299913 C47.1617938,28.1132794 49.2172343,28.2025679 50.3442238,29.3299913 C50.9117973,29.8896642 51.4794123,30.4574147 52.0469027,31.01308 C54.499628,33.4465037 56.9604484,35.8798237 59.4172213,38.3131436 C60.8685356,39.7528692 62.3159061,41.1925947 63.7753155,42.6201729 C63.8969399,42.7215631 64.0064008,42.8310599 64.1199092,42.9527311 C64.5861274,43.4191286 64.8415292,44.0396631 64.8982886,44.6764149 L64.8982886,44.6845256 C64.9063962,44.7859158 64.9185587,44.8791954 64.9307211,44.9765302 C64.9388287,45.4388683 64.8374775,45.8971572 64.6226074,46.3026725 L64.6227672,46.3029258 Z" id="Shape"></path>
                        </g>
                    </g>
                </g>
            </g>
        </g>
    </g>
</svg>