<?xml version="1.0" encoding="UTF-8"?>
<svg width="53px" height="36px" viewBox="0 0 53 36" version="1.1" xmlns="http://www.w3.org/2000/svg" xmlns:xlink="http://www.w3.org/1999/xlink">
    <title>Group 2 Copy</title>
    <defs>
        <filter id="filter-1">
            <feColorMatrix in="SourceGraphic" type="matrix" values="0 0 0 0 0.254902 0 0 0 0 0.250980 0 0 0 0 0.258824 0 0 0 1.000000 0"></feColorMatrix>
        </filter>
    </defs>
    <g id="Cake-Campaign-Landing-pages" stroke="none" stroke-width="1" fill="none" fill-rule="evenodd">
        <g id="Cake-Refi-Landing-Steps_D1" transform="translate(-1072.000000, -79.000000)">
            <g id="Group-2" transform="translate(386.000000, 54.000000)">
                <g id="Group-7" transform="translate(188.000000, 0.000000)">
                    <g id="Group-3" transform="translate(473.750000, 1.000000)">
                        <g id="Chat-with-us" transform="translate(24.500000, 19.250000)">
                            <g id="np_chat_747292_000000" transform="translate(0.000000, 5.250000)" filter="url(#filter-1)">
                                <g>
                                    <path d="M47.0229838,15.1002548 L42.6976175,15.1002548 L42.6976175,7.42153385 C42.6976175,3.3227201 39.336453,0 35.1923477,0 L7.5074023,0 C3.36116456,0 0,3.3227201 0,7.42153385 L0,17.8571106 C0,21.9559243 3.36116456,25.2786444 7.5074023,25.2786444 L9.85227933,25.2786444 L13.8423661,29.2230932 L17.8324529,25.2786444 L24.8173971,25.2786444 L24.8194795,26.8185521 C24.8194795,29.8036615 27.2747657,32.2310754 30.2946266,32.2310754 L40.3967262,32.2310754 L43.1956086,35 L45.994491,32.2310754 L47.0232535,32.2310754 C50.0429011,32.2310754 52.5,29.8038723 52.5,26.8185521 L52.4979176,20.5127253 C52.4979176,17.5296714 50.0426314,15.1002021 47.0227705,15.1002021 L47.0229838,15.1002548 Z M11.9660486,15.308181 C10.474964,15.308181 9.26712631,14.1141584 9.26712631,12.6401286 C9.26712631,11.1660987 10.474964,9.97207608 11.9660486,9.97207608 C13.4571332,9.97207608 14.664971,11.1660987 14.664971,12.6401286 C14.6628886,14.1141584 13.4550541,15.308181 11.9660486,15.308181 Z M30.7334881,9.97418417 C32.2245728,9.97418417 33.4324105,11.1682068 33.4324105,12.6422367 C33.4324105,14.1162665 32.2245728,15.3102891 30.7334881,15.3102891 C29.2424035,15.3102891 28.0345658,14.1162665 28.0345658,12.6422367 C28.0345658,11.1682068 29.2424035,9.97418417 30.7334881,9.97418417 Z M21.3495018,15.308181 C19.8584172,15.308181 18.6505795,14.1141584 18.6505795,12.6401286 C18.6505795,11.1660987 19.8584172,9.97207608 21.3495018,9.97207608 C22.8405864,9.97207608 24.0484242,11.1660987 24.0484242,12.6401286 C24.0463418,14.112103 22.8385073,15.308181 21.3495018,15.308181 Z M50.6210137,26.8183571 C50.6210137,28.7803046 49.0070982,30.3778158 47.0203715,30.3778158 L45.2148524,30.3778158 L43.1927265,32.3788683 L41.1706006,30.3778158 L30.293877,30.3778158 C28.3092295,30.3778158 26.6953139,28.7823599 26.6953139,26.8183571 L26.6953139,25.2784494 L26.693231,25.2784494 L35.1917043,25.2784494 C39.3358628,25.2784494 42.6969741,21.9557293 42.6969741,17.8590237 L42.6969741,16.9573405 L47.0223403,16.9573405 C49.0069878,16.9573405 50.6229826,18.5527964 50.6229826,20.5126884 L50.6210137,26.8183571 Z" id="Shape" fill="#000000" fill-rule="nonzero"></path>
                                </g>
                            </g>
                        </g>
                    </g>
                </g>
            </g>
        </g>
    </g>
</svg>