<?xml version="1.0" encoding="UTF-8"?>
<svg width="60px" height="60px" viewBox="0 0 60 60" version="1.1" xmlns="http://www.w3.org/2000/svg" xmlns:xlink="http://www.w3.org/1999/xlink">
    <title>np_next-arrow_1776680_000000 copy</title>
    <g id="Cake-Campaign-Landing-pages" stroke="none" stroke-width="1" fill="none" fill-rule="evenodd">
        <g id="Cake-Refi-Landing-Steps_D5" transform="translate(-690.000000, -762.000000)" fill="#ECEBEB" fill-rule="nonzero">
            <g id="np_next-arrow_1776680_000000-copy" transform="translate(720.000000, 791.988457) scale(-1, 1) translate(-720.000000, -791.988457) translate(690.000000, 762.000000)">
                <path d="M40.2333223,1.79447547 C34.3549321,-0.362292681 27.7605712,-0.570414027 21.7466393,1.145826 C15.984487,2.7944681 10.7247874,6.21338705 6.91384197,10.8482384 C2.96251153,15.6455461 0.575965785,21.5241439 0.0894959762,27.7269626 C-0.396987671,33.916151 1.11114485,40.2405353 4.33813274,45.5432015 C7.4408567,50.6459107 12.0811048,54.8214836 17.5269928,57.2783948 C23.3431818,59.9054425 29.856522,60.643277 36.1216111,59.3648667 C42.01889,58.1621495 47.5219283,55.0810818 51.6753606,50.7300449 C55.8429076,46.357075 58.6966885,40.7301186 59.616214,34.7514731 C59.8594558,33.1785241 59.9945963,31.5893156 60,29.9947103 L60,29.9893053 C59.9810809,23.8298682 58.0702419,17.6943707 54.4810481,12.6733048 C50.9281164,7.70552301 45.9684215,3.90267275 40.2333223,1.79447547 Z M43.0764398,30.8621446 C42.9899532,31.0513358 42.8737359,31.2351163 42.7331987,31.3810642 C42.7196853,31.4026858 42.7007662,31.4134973 42.6845503,31.435119 C42.6359012,31.4891724 42.5818457,31.5378236 42.5359041,31.5837652 C42.2115793,31.90809 41.8818509,32.2324147 41.5574985,32.5567049 C39.9223483,34.1783631 38.2818013,35.7999522 36.6439528,37.4215413 C35.6169071,38.4350259 34.5898615,39.4539764 33.5628851,40.4701593 C32.7574527,41.2674273 31.5087938,41.2133905 30.6980338,40.4701593 C29.8926015,39.7350232 29.9412415,38.3485393 30.6980338,37.6053081 C31.0764162,37.2323363 31.4548262,36.8539817 31.8331531,36.4836807 C33.3412718,34.9918215 34.8466921,33.4971947 36.3602075,32.0025679 L18.7383905,32.0052705 C17.6032712,32.0052705 16.7599923,31.0728066 16.7113522,29.9782322 C16.6627039,28.8836578 17.6788951,27.951194 18.7383905,27.951194 L36.2979372,27.951194 C35.4601242,27.1187778 34.6222421,26.2890599 33.7790324,25.4592729 C32.7519867,24.4457884 31.7249411,23.4268379 30.6979646,22.410655 C29.8925323,21.613387 29.9547334,20.351167 30.6979646,19.5458038 C31.4411959,18.7349746 32.8114895,18.7944774 33.5628159,19.5458038 C33.9411982,19.9187755 34.3196082,20.2971301 34.6979352,20.6674312 C36.3330853,22.2890894 37.9736323,23.9106785 39.6114809,25.5322676 C40.5790237,26.4917153 41.5439374,27.451163 42.516877,28.4025156 C42.5979599,28.4700831 42.6709339,28.5430529 42.7466062,28.6241358 C43.0574182,28.9349479 43.2276861,29.3484783 43.2655257,29.7728162 L43.2655257,29.7782212 C43.2709308,29.8457887 43.2790391,29.9079511 43.2871474,29.9728161 C43.2925525,30.2809228 43.224985,30.5863312 43.0817383,30.8565707 C43.0818448,30.8567395 43.0818448,30.8621446 43.0764398,30.8621446 Z" id="Shape"></path>
            </g>
        </g>
    </g>
</svg>