<?xml version="1.0" encoding="UTF-8"?>
<svg width="30px" height="20px" viewBox="0 0 30 20" version="1.1" xmlns="http://www.w3.org/2000/svg" xmlns:xlink="http://www.w3.org/1999/xlink">
    <title>np_chat_747292_000000</title>
    <defs>
        <filter id="filter-1">
            <feColorMatrix in="SourceGraphic" type="matrix" values="0 0 0 0 0.254902 0 0 0 0 0.250980 0 0 0 0 0.258824 0 0 0 1.000000 0"></feColorMatrix>
        </filter>
    </defs>
    <g id="Symbols" stroke="none" stroke-width="1" fill="none" fill-rule="evenodd">
        <g id="Hero-header-Cake" transform="translate(-1234.000000, -34.000000)">
            <g id="Chat-with-us" transform="translate(1234.000000, 31.000000)">
                <g id="np_chat_747292_000000" transform="translate(0.000000, 3.000000)" filter="url(#filter-1)">
                    <g>
                        <path d="M26.8702764,8.62871702 L24.3986386,8.62871702 L24.3986386,4.24087648 C24.3986386,1.8986972 22.4779731,0 20.109913,0 L4.28994417,0 C1.92066546,0 0,1.8986972 0,4.24087648 L0,10.2040632 C0,12.5462425 1.92066546,14.4449397 4.28994417,14.4449397 L5.6298739,14.4449397 L7.90992348,16.6989104 L10.1899731,14.4449397 L14.1813698,14.4449397 L14.1825597,15.3248869 C14.1825597,17.0306637 15.5855804,18.4177574 17.3112152,18.4177574 L23.0838435,18.4177574 L24.6832049,20 L26.2825663,18.4177574 L26.8704306,18.4177574 C28.5959435,18.4177574 30,17.0307841 30,15.3248869 L29.9988101,11.7215573 C29.9988101,10.0169551 28.5957893,8.6286869 26.8701546,8.6286869 L26.8702764,8.62871702 Z M6.83774208,8.74753203 C5.98569373,8.74753203 5.29550075,8.06523337 5.29550075,7.22293061 C5.29550075,6.38062785 5.98569373,5.69832919 6.83774208,5.69832919 C7.68979043,5.69832919 8.3799834,6.38062785 8.3799834,7.22293061 C8.37879348,8.06523337 7.68860233,8.74753203 6.83774208,8.74753203 Z M17.5619932,5.69953381 C18.4140416,5.69953381 19.1042346,6.38183247 19.1042346,7.22413523 C19.1042346,8.06643799 18.4140416,8.74873665 17.5619932,8.74873665 C16.7099449,8.74873665 16.0197519,8.06643799 16.0197519,7.22413523 C16.0197519,6.38183247 16.7099449,5.69953381 17.5619932,5.69953381 Z M12.1997153,8.74753203 C11.347667,8.74753203 10.657474,8.06523337 10.657474,7.22293061 C10.657474,6.38062785 11.347667,5.69832919 12.1997153,5.69832919 C13.0517637,5.69832919 13.7419567,6.38062785 13.7419567,7.22293061 C13.7407667,8.06405886 13.0505756,8.74753203 12.1997153,8.74753203 Z M28.9262936,15.3247755 C28.9262936,16.4458883 28.0040561,17.3587519 26.8687837,17.3587519 L25.8370585,17.3587519 L24.681558,18.5022105 L23.5260575,17.3587519 L17.3107869,17.3587519 C16.1767026,17.3587519 15.2544651,16.4470628 15.2544651,15.3247755 L15.2544651,14.4448283 L15.2532749,14.4448283 L20.1095453,14.4448283 C22.4776359,14.4448283 24.3982709,12.5461311 24.3982709,10.2051564 L24.3982709,9.68990887 L26.8699087,9.68990887 C28.003993,9.68990887 28.9274186,10.6015979 28.9274186,11.7215363 L28.9262936,15.3247755 Z" id="Shape" fill="#000000" fill-rule="nonzero"></path>
                    </g>
                </g>
            </g>
        </g>
    </g>
</svg>