<?xml version="1.0" encoding="UTF-8"?>
<svg width="18px" height="17px" viewBox="0 0 18 17" version="1.1" xmlns="http://www.w3.org/2000/svg" xmlns:xlink="http://www.w3.org/1999/xlink">
    <title>Icon/Support</title>
    <defs>
        <filter id="filter-1">
            <feColorMatrix in="SourceGraphic" type="matrix" values="0 0 0 0 0.423529 0 0 0 0 0.921569 0 0 0 0 0.807843 0 0 0 1.000000 0"></feColorMatrix>
        </filter>
    </defs>
    <g id="Cake-Home-Page" stroke="none" stroke-width="1" fill="none" fill-rule="evenodd">
        <g id="Cake-Homepage--(Mobile)-ChiMez" transform="translate(-131.000000, -40.000000)">
            <g id="Cake-Homepage--081021--(Mobile)" transform="translate(-249.236842, 0.000000)">
                <g id="Hero-header-11" transform="translate(249.236842, 0.000000)">
                    <g id="Header" transform="translate(0.000000, 1.000000)">
                        <g id="Icon/Support" transform="translate(130.000000, 37.000000)" filter="url(#filter-1)">
                            <g>
                                <path d="M4,2 C2.34314,2 1,3.34315 1,5 L1,13 C1,14.6569 2.34314,16 4,16 L4,18 C4,18.3603 4.19379,18.6927 4.50732,18.8702 C4.8208,19.0477 5.20557,19.0429 5.51453,18.8575 L10.277,16 L16,16 C17.6569,16 19,14.6569 19,13 L19,5 C19,3.34315 17.6569,2 16,2 L4,2 Z M3,5 C3,4.44772 3.44769,4 4,4 L16,4 C16.5523,4 17,4.44772 17,5 L17,13 C17,13.5523 16.5523,14 16,14 L10,14 C9.81873,14 9.64093,14.0493 9.48547,14.1425 L6,16.2338 L6,15 C6,14.4477 5.55231,14 5,14 L4,14 C3.44769,14 3,13.5523 3,13 L3,5 Z" id="Chat" fill="#121212"></path>
                            </g>
                        </g>
                    </g>
                </g>
            </g>
        </g>
    </g>
</svg>