<?xml version="1.0" encoding="UTF-8"?>
<svg width="68px" height="48px" viewBox="0 0 68 48" version="1.1" xmlns="http://www.w3.org/2000/svg" xmlns:xlink="http://www.w3.org/1999/xlink">
    <title>Shape</title>
    <defs>
        <filter x="-3.6%" y="-12.0%" width="107.2%" height="124.0%" filterUnits="objectBoundingBox" id="filter-1">
            <feOffset dx="0" dy="2" in="SourceAlpha" result="shadowOffsetOuter1"></feOffset>
            <feGaussianBlur stdDeviation="2" in="shadowOffsetOuter1" result="shadowBlurOuter1"></feGaussianBlur>
            <feColorMatrix values="0 0 0 0 0   0 0 0 0 0   0 0 0 0 0  0 0 0 0.5 0" type="matrix" in="shadowBlurOuter1" result="shadowMatrixOuter1"></feColorMatrix>
            <feMerge>
                <feMergeNode in="shadowMatrixOuter1"></feMergeNode>
                <feMergeNode in="SourceGraphic"></feMergeNode>
            </feMerge>
        </filter>
    </defs>
    <g id="Cake-Advice-Center-page" stroke="none" stroke-width="1" fill="none" fill-rule="evenodd">
        <g id="Cake-Tools-&amp;-Advice-page-HD-Desktop" transform="translate(-838.000000, -997.000000)" fill="#414240" fill-rule="nonzero">
            <g id="Group" transform="translate(2.000000, 912.000000)">
                <g id="Button/Primary/Large/Text" transform="translate(289.000000, 59.000000)">
                    <g id="Group-6" filter="url(#filter-1)" transform="translate(529.000000, 0.000000)">
                        <g id="Chat-with-us" transform="translate(22.000000, 22.000000)">
                            <g id="np_chat_747292_000000" transform="translate(0.000000, 6.000000)">
                                <path d="M53.7405529,17.257434 L48.7972772,17.257434 L48.7972772,8.48175297 C48.7972772,3.7973944 44.9559463,0 40.219826,0 L8.57988834,0 C3.84133092,0 0,3.7973944 0,8.48175297 L0,20.4081264 C0,25.092485 3.84133092,28.8898794 8.57988834,28.8898794 L11.2597478,28.8898794 L15.819847,33.3978208 L20.3799461,28.8898794 L28.3627395,28.8898794 L28.3651194,30.6497738 C28.3651194,34.0613274 31.1711609,36.8355147 34.6224304,36.8355147 L46.167687,36.8355147 L49.3664098,40 L52.5651325,36.8355147 L53.7408612,36.8355147 C57.191887,36.8355147 60,34.0615683 60,30.6497738 L59.9976202,23.4431147 C59.9976202,20.0339101 57.1915787,17.2573738 53.7403092,17.2573738 L53.7405529,17.257434 Z M13.6754842,17.4950641 C11.9713875,17.4950641 10.5910015,16.1304667 10.5910015,14.4458612 C10.5910015,12.7612557 11.9713875,11.3966584 13.6754842,11.3966584 C15.3795809,11.3966584 16.7599668,12.7612557 16.7599668,14.4458612 C16.757587,16.1304667 15.3772047,17.4950641 13.6754842,17.4950641 Z M35.1239865,11.3990676 C36.8280832,11.3990676 38.2084691,12.7636649 38.2084691,14.4482705 C38.2084691,16.132876 36.8280832,17.4974733 35.1239865,17.4974733 C33.4198898,17.4974733 32.0395038,16.132876 32.0395038,14.4482705 C32.0395038,12.7636649 33.4198898,11.3990676 35.1239865,11.3990676 Z M24.3994307,17.4950641 C22.695334,17.4950641 21.314948,16.1304667 21.314948,14.4458612 C21.314948,12.7612557 22.695334,11.3966584 24.3994307,11.3966584 C26.1035274,11.3966584 27.4839133,12.7612557 27.4839133,14.4458612 C27.4815335,16.1281177 26.1011512,17.4950641 24.3994307,17.4950641 Z M57.8525871,30.649551 C57.8525871,32.8917766 56.0081122,34.7175038 53.7375674,34.7175038 L51.6741171,34.7175038 L49.363116,37.004421 L47.052115,34.7175038 L34.6215737,34.7175038 C32.3534051,34.7175038 30.5089302,32.8941257 30.5089302,30.649551 L30.5089302,28.8896565 L30.5065497,28.8896565 L40.2190906,28.8896565 C44.9552718,28.8896565 48.7965418,25.0922621 48.7965418,20.4103128 L48.7965418,19.3798177 L53.7398175,19.3798177 C56.0079861,19.3798177 57.8548372,21.2031959 57.8548372,23.4430725 L57.8525871,30.649551 Z" id="Shape"></path>
                            </g>
                        </g>
                    </g>
                </g>
            </g>
        </g>
    </g>
</svg>