<?xml version="1.0" encoding="UTF-8"?>
<svg width="16px" height="14px" viewBox="0 0 16 14" version="1.1" xmlns="http://www.w3.org/2000/svg" xmlns:xlink="http://www.w3.org/1999/xlink">
    <title>Icon/Hamburger Menu/2</title>
    <g id="Cake-Rates-Page" stroke="none" stroke-width="1" fill="none" fill-rule="evenodd">
        <g id="Cake-Rate-Refi-HD--(Mobile)-" transform="translate(-121.000000, -79.000000)" fill="#121212">
            <g id="Cake-Homepage--081021--(Mobile)" transform="translate(-249.236842, 0.000000)">
                <g id="Hero-header-11" transform="translate(249.236842, 0.000000)">
                    <g id="Header" transform="translate(0.000000, 1.000000)">
                        <g id="Menu" transform="translate(119.000000, 75.000000)">
                            <path d="M17,15 C17.5523,15 18,15.4477 18,16 C18,16.5523 17.5523,17 17,17 L17,17 L3,17 C2.44772,17 2,16.5523 2,16 C2,15.4477 2.44772,15 3,15 L3,15 Z M17,9 C17.5523,9 18,9.44772 18,10 C18,10.5523 17.5523,11 17,11 L3,11 C2.44772,11 2,10.5523 2,10 C2,9.44772 2.44772,9 3,9 L17,9 Z M17,3 C17.5523,3 18,3.44772 18,4 C18,4.55228 17.5523,5 17,5 L3,5 C2.44772,5 2,4.55228 2,4 C2,3.44772 2.44772,3 3,3 L17,3 Z"></path>
                        </g>
                    </g>
                </g>
            </g>
        </g>
    </g>
</svg>