<?xml version="1.0" encoding="UTF-8"?>
<svg width="18px" height="18px" viewBox="0 0 18 18" version="1.1" xmlns="http://www.w3.org/2000/svg" xmlns:xlink="http://www.w3.org/1999/xlink">
    <title>Support</title>
    <g id="Symbols" stroke="none" stroke-width="1" fill="none" fill-rule="evenodd">
        <g id="Icon/Support" transform="translate(-1.000000, -1.000000)" fill="#121212">
            <path d="M10,1 C6.46051,1 3.53458,3.627 3.06561,7.03761 C1.89196,7.24322 1,8.26745 1,9.5 L1,11.5 C1,12.8807 2.11929,14 3.5,14 C4.88071,14 6,12.8807 6,11.5 L6,9.5 C6,8.69247 5.61712,7.97436 5.023,7.5173 C5.26582,4.98235 7.40141,3 10,3 C12.5986,3 14.7342,4.98235 14.977,7.5173 C14.3829,7.97436 14,8.69247 14,9.5 L14,11.5 C14,12.214 14.2993,12.8581 14.7793,13.3136 C14.3096,14.6652 13.1353,15.6871 11.6961,15.9396 C11.3425,15.3753 10.7151,15 10,15 C8.89543,15 8,15.8954 8,17 C8,18.1046 8.89543,19 10,19 C10.7597,19 11.4206,18.5764 11.7591,17.9524 C14.0382,17.6647 15.919,16.0985 16.6604,13.9949 C17.9664,13.9123 19,12.8268 19,11.5 L19,9.5 C19,8.26745 18.108,7.24322 16.9344,7.03761 C16.4654,3.627 13.5395,1 10,1 Z M16.5,12 C16.7761,12 17,11.7761 17,11.5 L17,9.5 C17,9.22386 16.7761,9 16.5,9 C16.2239,9 16,9.22386 16,9.5 L16,11.5 C16,11.7761 16.2239,12 16.5,12 Z M3.5,9 C3.22386,9 3,9.22386 3,9.5 L3,11.5 C3,11.7761 3.22386,12 3.5,12 C3.77614,12 4,11.7761 4,11.5 L4,9.5 C4,9.22386 3.77614,9 3.5,9 Z" id="Support"></path>
        </g>
    </g>
</svg>