<?xml version="1.0" encoding="UTF-8"?>
<svg width="20px" height="20px" viewBox="0 0 20 20" version="1.1" xmlns="http://www.w3.org/2000/svg" xmlns:xlink="http://www.w3.org/1999/xlink">
    <title>Social Network/Instagram</title>
    <g id="Symbols" stroke="none" stroke-width="1" fill="none" fill-rule="evenodd">
        <g id="Footer-26_Cake" transform="translate(-1260.000000, -125.000000)" fill="#121212">
            <g id="Content" transform="translate(43.000000, 68.000000)">
                <g id="Social-networks" transform="translate(1082.000000, 57.000000)">
                    <g id="Instagram" transform="translate(135.000000, 0.000000)">
                        <path d="M14,0 C17.3137085,0 20,2.6862915 20,6 L20,14 C20,17.3137085 17.3137085,20 14,20 L6,20 C2.6862915,20 0,17.3137085 0,14 L0,6 C0,2.6862915 2.6862915,0 6,0 L14,0 Z M10,5 C7.2425,5 5,7.2425 5,10 C5,12.7575 7.2425,15 10,15 C12.7575,15 15,12.7575 15,10 C15,7.2425 12.7575,5 10,5 Z M16,3 C15.5,3 15,3.5 15,4 C15,4.5 15.5,5 16,5 C16.5,5 17,4.5 17,4 C17,3.5 16.5,3 16,3 Z M10,7 C8.34314575,7 7,8.34314575 7,10 C7,11.6568542 8.34314575,13 10,13 C11.6568542,13 13,11.6568542 13,10 C13,8.34314575 11.6568542,7 10,7 Z"></path>
                    </g>
                </g>
            </g>
        </g>
    </g>
</svg>