<?xml version="1.0" encoding="UTF-8"?>
<svg width="48px" height="48px" viewBox="0 0 48 48" version="1.1" xmlns="http://www.w3.org/2000/svg" xmlns:xlink="http://www.w3.org/1999/xlink">
    <title>Icon/Quotes</title>
    <g id="Cake-About-Us" stroke="none" stroke-width="1" fill="none" fill-rule="evenodd" fill-opacity="0.1">
        <g id="Cake-About-Us-HD" transform="translate(-372.000000, -2990.000000)" fill="#121212">
            <g id="Group-15" transform="translate(0.000000, 2000.000000)">
                <g id="Content" transform="translate(147.000000, 95.000000)">
                    <g id="Icon/Quotes" transform="translate(219.000000, 889.000000)">
                        <path d="M50.2285714,6 L50.2285714,16.9714286 C47.7264173,16.9714286 43.3186115,17.1793453 43.3183602,27.1957624 L43.3183602,27.1957624 L43.3183602,32.4 L54,32.4 L54,54 L32.4,54 L32.4,27.1957624 C32.4,19.3208384 34.4379494,13.4729053 38.890467,9.81413255 C41.9705439,7.28323127 45.6195121,6 50.2285714,6 L50.2285714,6 Z M23.8285714,6 L23.8285714,16.9714286 C21.3264173,16.9714286 16.9186115,17.1793453 16.9183602,27.1957624 L16.9183602,27.1957624 L16.9183602,32.4 L27.6,32.4 L27.6,54 L6,54 L6,27.1957624 C6,19.3208384 8.03794936,13.4729053 12.490467,9.81413255 C15.5705439,7.28323127 19.2195121,6 23.8285714,6 L23.8285714,6 Z" id="Quotes"></path>
                    </g>
                </g>
            </g>
        </g>
    </g>
</svg>