<?xml version="1.0" encoding="UTF-8"?>
<svg width="94px" height="99px" viewBox="0 0 94 99" version="1.1" xmlns="http://www.w3.org/2000/svg" xmlns:xlink="http://www.w3.org/1999/xlink">
    <title>np_launch_796223_000000</title>
    <g id="Articles" stroke="none" stroke-width="1" fill="none" fill-rule="evenodd">
        <g id="Cake-Timeline" transform="translate(-1263.000000, -556.000000)" fill="#FFFFFF" fill-rule="nonzero">
            <g id="np_launch_796223_000000" transform="translate(1263.000000, 556.000000)">
                <path d="M93.4959819,5.83738617 C93.7303619,4.19678617 93.1795719,2.54048617 92.0076819,1.36858617 C90.9412819,0.345186167 89.4724819,-0.143113833 88.0076819,0.0365861665 C57.8866819,3.69678617 40.6366819,17.1885862 30.7776819,30.4665862 L26.1682819,30.2283062 C22.8127819,30.0564262 19.5432819,31.3103062 17.1682819,33.6892062 L9.96908185,40.8884062 C9.79330185,41.0641862 9.71517185,41.3180962 9.76205185,41.5602862 C9.81283285,41.8063762 9.97689185,42.0095062 10.2073619,42.1071662 L21.6873619,46.8688662 C20.3904619,50.1344662 19.3592619,53.4977662 18.5975619,56.9278662 C18.3280319,58.1622662 18.7030319,59.4512662 19.5975619,60.3497662 L33.2185619,73.9277662 C34.1130919,74.8222962 35.4021619,75.1972662 36.6365619,74.9277662 C40.0662619,74.1660462 43.4295619,73.1347662 46.6985619,71.8379662 L51.4602619,83.3179662 L51.4563559,83.3179662 C51.5540119,83.5484362 51.7571359,83.7124962 52.0032259,83.7632762 C52.2493159,83.8101512 52.4993159,83.7320262 52.6751059,83.5562462 L59.8743059,76.3570462 L59.8782119,76.3570462 C62.2532119,73.9820462 63.5071119,70.7125462 63.3352119,67.3570462 L63.0969319,62.7476462 C76.3469319,52.9976462 89.7769319,35.7786462 93.4949319,5.83764617 L93.4959819,5.83738617 Z M55.4959819,47.1893862 C53.6521819,49.0331862 50.8787819,49.5838862 48.4686819,48.5877862 C46.0584819,47.5877862 44.4842819,45.2361862 44.4842819,42.6268862 C44.4842819,40.0175862 46.0584819,37.6659862 48.4686819,36.6698862 C50.8788819,35.6698862 53.6522819,36.2245762 55.4959819,38.0682862 C58.0115819,40.5838862 58.0154819,44.6580862 55.5077009,47.1776862 L55.4959819,47.1893862 Z M59.4959819,34.1113802 L59.4959819,34.1074802 C57.0662819,31.6816802 56.3397819,28.0293802 57.6521819,24.8535802 C58.9646819,21.6816802 62.0623819,19.6113802 65.4959819,19.6113802 C68.9334819,19.6113802 72.0271819,21.6816802 73.3436819,24.8535802 C74.6561819,28.0293802 73.9257119,31.6816802 71.4959819,34.1074802 C69.9021819,35.7051802 67.7381819,36.6035802 65.4803819,36.5996928 C63.2225819,36.5996928 61.0584819,35.6973402 59.4686819,34.0996802 L59.4959819,34.1113802 Z M7.67598185,76.3883862 C5.66038185,75.6852662 3.50018185,75.5133862 1.39868185,75.8883862 C1.03540185,75.9508862 0.660401852,75.8376052 0.398681852,75.5758862 C0.0510218523,75.2399462 -0.0427281477,74.7165062 0.156491852,74.2789862 C2.33619185,69.4508862 8.33619185,59.7399862 19.0864919,67.5797862 L19.0864919,67.5758802 C19.1997719,67.6813502 19.2661819,67.8258802 19.2661819,67.9782202 C19.2661819,68.1305602 19.1997759,68.2751002 19.0864919,68.3766602 C16.1450919,70.6852602 14.4809919,74.2594602 14.6059919,77.9977602 C14.6216169,78.4430702 14.9809919,78.8024502 15.4263019,78.8180702 C19.1411019,78.9665102 22.7036019,77.3453702 25.0279019,74.4469702 C25.1294619,74.3258802 25.2818119,74.2516602 25.4419619,74.2516602 C25.6021219,74.2516602 25.7544619,74.3258792 25.8560219,74.4469702 C27.3560219,76.2360702 31.4771219,82.0485702 26.9146219,87.6659702 L26.9185279,87.6698762 C24.9107279,90.0682762 22.0357279,91.5800762 18.9185279,91.8690762 C14.4693279,92.3573562 6.28952785,93.7596762 2.91852785,97.6073762 C2.64508785,97.9433162 2.21149785,98.0956562 1.78962785,98.0058162 C1.36774785,97.9198792 1.03181785,97.6034762 0.918537852,97.1894062 C-0.222062148,93.1464062 -2.01116215,84.1464062 7.67633785,76.3884062 L7.67598185,76.3883862 Z" id="Shape"></path>
            </g>
        </g>
    </g>
</svg>