<?xml version="1.0" encoding="UTF-8"?>
<svg width="1120px" height="86px" viewBox="0 0 1120 86" version="1.1" xmlns="http://www.w3.org/2000/svg" xmlns:xlink="http://www.w3.org/1999/xlink">
    <title>np_road_2324285_000000</title>
    <g id="Articles" stroke="none" stroke-width="1" fill="none" fill-rule="evenodd">
        <g id="Cake-Timeline" transform="translate(-129.000000, -621.000000)" fill="#FFFFFF" fill-rule="nonzero">
            <g id="Group-12" transform="translate(129.000000, 86.380952)">
                <g id="np_road_2324285_000000" transform="translate(559.750000, 577.869048) scale(1, -1) rotate(90.000000) translate(-559.750000, -577.869048) translate(517.000000, 18.119048)">
                    <path d="M59.3399576,882.441534 C59.3399576,1015.41765 35.5023523,1068.23001 19,1068.23001 L19,1119.5 C48.2814485,1119.5 85.5,1066.20159 85.5,882.5 C85.5,672.699603 25.5784572,511.035503 26.5,302 C27.4215428,92.9644975 70.7438018,0 81.5,0 L46.5,0 C44.0810851,24.398374 35.5,43 29,74.5 C22.5,106 14.590912,135.421798 9.795456,173.460899 C5,211.5 0,249.220817 0,279.5 C0.00438968865,573.975349 59.3401711,739.719927 59.3401711,882.451033 L59.3399576,882.441534 Z" id="Shape"></path>
                </g>
            </g>
        </g>
    </g>
</svg>