<?xml version="1.0" encoding="UTF-8"?>
<svg width="20px" height="20px" viewBox="0 0 20 20" version="1.1" xmlns="http://www.w3.org/2000/svg" xmlns:xlink="http://www.w3.org/1999/xlink">
    <title>Social Network/Twitter</title>
    <g id="Symbols" stroke="none" stroke-width="1" fill="none" fill-rule="evenodd">
        <g id="Footer-26_Cake" transform="translate(-1170.000000, -125.000000)" fill="#121212">
            <g id="Content" transform="translate(43.000000, 68.000000)">
                <g id="Social-networks" transform="translate(1082.000000, 57.000000)">
                    <g id="Twitter" transform="translate(45.000000, 0.000000)">
                        <path d="M18,2.30926389e-14 C19.1045695,2.30926389e-14 20,0.8954305 20,2 L20,18 C20,19.1045695 19.1045695,20 18,20 L2,20 C0.8954305,20 1.24344979e-14,19.1045695 1.24344979e-14,18 L1.24344979e-14,2 C1.24344979e-14,0.8954305 0.8954305,2.30926389e-14 2,2.30926389e-14 L18,2.30926389e-14 Z M12.6924734,4.5 C11.1062267,4.5 9.82042998,5.74374083 9.82042998,7.27694164 C9.82042998,7.49455724 9.84627514,7.70696673 9.89473482,7.90948459 C7.50782662,7.79390885 5.39175416,6.68813006 3.9745779,5.00759619 C3.727972,5.41783804 3.58636206,5.89471816 3.58636206,6.4043968 C3.58636206,7.36752804 4.09303488,8.21768659 4.86354371,8.71539117 C4.39294643,8.70081405 3.94980962,8.57586729 3.56267067,8.36814331 L3.56267067,8.40302428 L3.56267067,8.40302428 C3.56267067,9.74880496 4.55232491,10.8712433 5.86665897,11.1258223 C5.62597592,11.1893369 5.37183185,11.2231767 5.10961117,11.2231767 C4.92492596,11.2231767 4.74454829,11.2054759 4.56955502,11.1737186 C4.93515634,12.2768943 5.99588477,13.0801978 7.25260567,13.1025841 C6.26995116,13.8475792 5.03153725,14.2916608 3.68543518,14.2916608 C3.45390562,14.2916608 3.22506827,14.2786455 3,14.2526149 C4.2712588,15.0403001 5.78050844,15.5 7.40283066,15.5 C12.6860121,15.5 15.5742087,11.2684699 15.5742087,7.59867954 C15.5742087,7.47841829 15.5715165,7.35867765 15.5661321,7.23945762 C16.1277259,6.84743717 16.6150148,6.35858299 17,5.80204932 C16.4847121,6.0233092 15.931195,6.17220408 15.3502173,6.23936296 C15.9435791,5.89575938 16.3985616,5.35172038 16.612861,4.70303848 C16.058267,5.02113209 15.4433676,5.25228359 14.7886235,5.37723035 C14.2647206,4.83735624 13.5184416,4.5 12.6924734,4.5 Z"></path>
                    </g>
                </g>
            </g>
        </g>
    </g>
</svg>