<?xml version="1.0" encoding="UTF-8"?>
<svg width="16px" height="16px" viewBox="0 0 16 16" version="1.1" xmlns="http://www.w3.org/2000/svg" xmlns:xlink="http://www.w3.org/1999/xlink">
    <title>Icon/User</title>
    <defs>
        <filter id="filter-1">
            <feColorMatrix in="SourceGraphic" type="matrix" values="0 0 0 0 0.423529 0 0 0 0 0.921569 0 0 0 0 0.807843 0 0 0 1.000000 0"></feColorMatrix>
        </filter>
    </defs>
    <g id="Cake-Home-Page" stroke="none" stroke-width="1" fill="none" fill-rule="evenodd">
        <g id="Cake-Homepage--(Mobile)-ChiMez" transform="translate(-277.000000, -40.000000)">
            <g id="Cake-Homepage--081021--(Mobile)" transform="translate(-249.236842, 0.000000)">
                <g id="Hero-header-11" transform="translate(249.236842, 0.000000)">
                    <g id="Header" transform="translate(0.000000, 1.000000)">
                        <g id="Icon/User" transform="translate(275.000000, 37.000000)" filter="url(#filter-1)">
                            <g>
                                <path d="M12.9362,9.556 C13.5964,8.75349 14,7.67976 14,6.5 C14,4.01472 12.2091,2 10,2 C7.79086,2 6,4.01472 6,6.5 C6,7.67976 6.40355,8.75349 7.06383,9.556 C4.09823,10.7267 2,13.6183 2,17 C2,17.5523 2.44772,18 3,18 C3.55228,18 4,17.5523 4,17 C4,13.6863 6.68629,11 10,11 C13.3137,11 16,13.6863 16,17 C16,17.5523 16.4477,18 17,18 C17.5523,18 18,17.5523 18,17 C18,13.6183 15.9018,10.7267 12.9362,9.556 Z M12,6.5 C12,8.10867 10.8896,9 10,9 C9.11038,9 8,8.10867 8,6.5 C8,4.89133 9.11038,4 10,4 C10.8896,4 12,4.89133 12,6.5 Z" id="Shape" fill="#121212"></path>
                            </g>
                        </g>
                    </g>
                </g>
            </g>
        </g>
    </g>
</svg>